<svg width="154" height="140" viewBox="0 0 154 140" fill="none" xmlns="http://www.w3.org/2000/svg">
<g clip-path="url(#clip0_140_525)">
<path d="M42.9575 85.9746H12.3921C10.0898 85.9746 8.22351 87.841 8.22351 90.1433C8.22351 92.4457 10.0898 94.3121 12.3921 94.3121H42.9575C45.2597 94.3121 47.1261 92.4457 47.1261 90.1433C47.1261 87.841 45.2597 85.9746 42.9575 85.9746Z" fill="white" stroke="#D8BAA3" stroke-width="6" stroke-miterlimit="10"/>
<path d="M10.7391 139.176C10.7027 139.177 10.6665 139.17 10.6331 139.155C10.5996 139.141 10.5697 139.119 10.5452 139.092C10.5208 139.065 10.5024 139.033 10.4914 138.998C10.4804 138.964 10.477 138.927 10.4813 138.891L16.7541 94.312H37.1949L10.9664 139.049C10.9429 139.088 10.9095 139.12 10.8697 139.142C10.8298 139.165 10.7848 139.176 10.7391 139.176Z" stroke="#D8BAA3" stroke-width="6" stroke-miterlimit="10"/>
<path d="M44.3621 139.176C44.3988 139.177 44.4351 139.17 44.4688 139.155C44.5024 139.14 44.5324 139.118 44.5567 139.091C44.581 139.064 44.5991 139.031 44.6097 138.996C44.6202 138.961 44.623 138.924 44.6178 138.888L37.3002 94.312H16.8594L44.139 139.053C44.1627 139.091 44.1956 139.122 44.2346 139.143C44.2736 139.165 44.3175 139.176 44.3621 139.176Z" stroke="#D8BAA3" stroke-width="6" stroke-miterlimit="10"/>
<path d="M51.141 122.4C52.5593 122.541 54.855 122.821 57.5937 122.561C56.8909 125.274 56.5679 127.867 56.0565 130.172C55.7262 131.655 57.74 133.664 58.3502 135.117C58.3348 135.109 58.319 135.101 58.3028 135.095C55.5105 134.65 51.7712 137.291 52.1563 133.168C52.5256 129.042 51.5966 126.014 51.141 122.4Z" fill="#B65A18"/>
<path d="M52.2405 130.134C51.2799 130.134 49.5112 131.869 49.6659 134.647C49.7521 136.285 50.0231 137.909 50.4739 139.487H61.6791C62.2052 135.517 58.3028 135.089 58.3028 135.089C55.5094 134.643 51.9111 137.284 52.2962 133.163L52.2405 130.134Z" fill="#642648"/>
<path d="M43.3552 122.505C44.7735 122.646 47.8057 122.821 50.5444 122.561C49.8416 125.274 49.4281 130.172 49.4281 130.172C49.0978 131.655 51.1115 133.664 51.7218 135.117C51.7064 135.109 51.6906 135.101 51.6744 135.095C48.8821 134.65 45.1428 137.291 45.5279 133.168C45.8972 129.042 43.3552 122.505 43.3552 122.505Z" fill="#C36F0B"/>
<path d="M45.4016 130.134C44.441 130.134 42.8828 131.869 43.0374 134.647C43.1236 136.285 43.3947 137.909 43.8455 139.487H55.0507C55.5767 135.517 51.6744 135.089 51.6744 135.089C48.881 134.643 45.2827 137.284 45.6678 133.163L45.4016 130.134Z" fill="#722D54"/>
<path d="M20.8396 62.7026C20.8396 62.7026 11.2115 74.3555 11.8965 82.1269C12.5814 89.8983 20.5629 92.1963 35.2538 92.0248C35.2538 92.0248 35.6841 103.682 43.3131 122.538C43.3131 122.538 46.8535 123.222 51.2041 122.538C51.2041 122.538 54.8865 122.909 57.6221 122.52C57.6221 122.52 63.4551 84.3944 62.746 80.5276C61.8064 75.4035 43.2394 70.7813 38.4333 69.6712L34.4152 62.7026C34.4152 62.7026 26.3475 63.7275 20.8396 62.7026Z" fill="#3F4D90"/>
<path d="M31.6312 74.1787C31.6312 74.1787 47.0302 78.2191 48.9104 83.1717C50.7905 88.1243 50.8863 122.959 50.8863 122.959" stroke="white" stroke-width="4" stroke-miterlimit="10"/>
<path d="M39.4161 48.1203C39.4161 48.1203 38.8185 56.4462 34.3764 62.7225C34.3764 62.7225 27.1167 63.9609 20.8039 62.7225C20.8039 62.7225 14.549 56.1443 12.7561 49.0147C12.7561 49.0147 6.80003 36.9336 9.49454 34.8839C12.189 32.8343 18.8932 29.3074 18.8932 29.3074L32.5299 29.9766C34.2133 30.9993 37.8021 32.6712 41.3888 34.5493L39.4161 48.1203Z" fill="#F0E1D4"/>
<path d="M28.3656 45.3562C28.9089 45.3562 29.3493 44.9158 29.3493 44.3725C29.3493 43.8291 28.9089 43.3887 28.3656 43.3887C27.8223 43.3887 27.3818 43.8291 27.3818 44.3725C27.3818 44.9158 27.8223 45.3562 28.3656 45.3562Z" fill="#F0E1D4" stroke="white" stroke-width="5" stroke-linejoin="round"/>
<path d="M28.3656 49.3377C28.9089 49.3377 29.3493 48.8972 29.3493 48.3539C29.3493 47.8106 28.9089 47.3701 28.3656 47.3701C27.8223 47.3701 27.3818 47.8106 27.3818 48.3539C27.3818 48.8972 27.8223 49.3377 28.3656 49.3377Z" fill="#F0E1D4" stroke="white" stroke-width="5" stroke-linejoin="round"/>
<path d="M28.3656 53.3182C28.9089 53.3182 29.3493 52.8777 29.3493 52.3344C29.3493 51.791 28.9089 51.3506 28.3656 51.3506C27.8223 51.3506 27.3818 51.791 27.3818 52.3344C27.3818 52.8777 27.8223 53.3182 28.3656 53.3182Z" fill="#F0E1D4" stroke="white" stroke-width="5" stroke-linejoin="round"/>
<path d="M41.3803 34.5483C44.966 36.4275 55.5168 60.6108 51.1262 63.1676C42.0085 68.4843 39.416 48.1215 39.416 48.1215L41.3803 34.5483Z" fill="#F0E1D4"/>
<path d="M47.2901 63.9222C48.5211 64.4483 51.6975 63.4792 55.2274 61.1665C58.7573 58.8538 54.7529 57.3271 54.7529 57.3271C54.7529 57.3271 50.0604 55.4437 47.1975 56.801C44.3347 58.1583 44.9323 62.9068 47.2901 63.9222Z" fill="#B65A18"/>
<path d="M66.3453 52.124H47.0724L25.9246 65.9676H45.1965L66.3453 52.124Z" fill="white" stroke="#3F4D79" stroke-width="5" stroke-linejoin="round"/>
<path d="M59.2193 57.8351C59.2193 57.3322 56.0229 54.3735 54.8004 55.4909C54.288 55.9581 54.2585 59.97 54.3059 60.6939C54.4553 62.9982 59.193 60.4151 59.2193 57.8351Z" fill="#C36F0B"/>
<path d="M9.48591 34.8839C8.39065 35.753 -3.23751 53.457 0.877376 61.6093C5.51938 70.8116 24.3778 63.1707 24.3778 63.1707C24.3778 63.1707 21.9852 62.4342 23.5224 59.3597C23.5224 59.3597 15.7198 55.2078 9.44383 56.4462C9.44383 56.4462 14.311 48.376 14.8234 45.2163C15.3358 42.0566 13.4146 31.7674 9.48591 34.8839Z" fill="#F0E1D4"/>
<path d="M28.4539 53.9727L31.8901 61.6483" stroke="#722D54" stroke-width="6" stroke-miterlimit="10"/>
<path d="M23.5279 59.1136C23.5279 59.1136 26.9862 57.1418 28.3677 57.8804C29.8817 58.6885 31.6977 61.2474 31.8639 61.6778C32.0301 62.1081 31.9828 62.5553 31.9565 63.0161C31.9302 63.477 28.8001 63.4507 28.1983 63.416C27.5965 63.3812 24.3664 63.7642 23.8025 63.2118C21.7329 61.1853 23.5279 59.1136 23.5279 59.1136Z" fill="#C36F0B"/>
<path d="M28.1973 63.4159C28.8033 63.4506 31.5704 63.4853 31.9229 63.1571C32.6225 62.5079 32.2217 61.5378 31.8713 61.1579C31.5504 60.8086 29.8428 58.6885 28.3667 57.8835C28.3667 57.8835 30.0785 60.8623 28.1973 63.4191" fill="#B65A18"/>
<path d="M22.5083 7.13056C22.5083 7.13056 20.9711 4.65373 22.5083 3.37323C24.0454 2.09273 24.6778 0.0136186 27.4607 -5.97058e-05C30.3351 -0.013738 31.4819 2.2274 32.7981 2.00645C34.5867 1.70658 35.8409 1.12998 38.1124 2.32841C39.9305 3.288 40.0063 6.8854 41.8496 6.70338C43.3163 6.55923 44.945 6.65182 45.7772 8.28165C46.4085 9.51585 45.7351 12.8502 46.6736 13.7467C47.6121 14.6431 49.83 14.9356 50.0047 17.2473C50.2361 20.3712 46.9745 20.831 47.8268 23.311C48.9483 26.5727 47.3659 28.6203 44.582 28.9927C42.624 29.2526 39.1835 26.3413 37.922 28.352C36.8457 30.066 34.5909 30.8288 31.8196 29.7198C29.0483 28.6108 27.3365 28.9507 25.6289 29.6767C23.9213 30.4027 21.8286 31.4264 20.4198 30.188C19.011 28.9496 17.3107 28.9149 15.4348 29.6903C12.8318 30.7667 10.0384 28.997 10.3846 26.6453C10.6718 24.702 8.00464 24.4568 7.69531 22.2472C7.29129 19.3611 11.5377 18.6183 10.2993 17.3798C9.06098 16.1414 9.10517 12.5209 12.774 12.0411C16.2544 11.5886 15.5095 9.42011 16.4911 7.93758C17.3192 6.69812 19.9042 5.12406 22.5083 7.13056Z" fill="#722D54"/>
<path d="M8.80847 16.7002C7.65113 15.3892 8.02043 11.3552 11.7113 11.1037C15.2128 10.8659 14.6005 8.65527 15.6726 7.24009C16.5753 6.05007 19.6012 4.62963 22.4651 7.11488" stroke="#722D54" stroke-width="3" stroke-miterlimit="10"/>
<path d="M23.0049 17.7745C22.9786 19.984 23.1164 26.0772 18.8848 29.3064C18.8848 29.3064 26.4833 33.1226 28.1982 41.5769C28.1982 41.5769 29.405 32.666 32.5214 29.9755C32.5214 29.9755 28.8285 27.8817 29.6397 17.7703L23.0049 17.7745Z" fill="#C36F0B"/>
<path d="M30.3352 26.5307C29.8091 27.0062 29.2157 27.2777 28.5718 27.2777C25.9057 27.2777 23.2512 23.2163 22.9955 18.8739C23.0039 18.4468 23.0039 18.0743 23.0081 17.7744H29.6428C29.3093 21.8853 29.7249 24.6725 30.3352 26.5307Z" fill="#B65A18"/>
<path d="M22.765 15.7753C22.7945 14.6642 23.1859 8.85832 27.8878 9.07191C32.5898 9.2855 33.3526 14.0245 32.9318 17.825C32.5109 21.6255 30.1962 24.1865 28.577 24.016C26.9577 23.8456 22.6366 20.4723 22.765 15.7753Z" fill="#C36F0B"/>
</g>
<g clip-path="url(#clip1_140_525)">
<path d="M114.728 123.676H134.56" stroke="#424D76" stroke-width="5" stroke-miterlimit="10" stroke-linecap="round"/>
<path d="M107.852 85.6287L142.705 135.239" stroke="#424D76" stroke-width="5" stroke-miterlimit="10" stroke-linecap="round"/>
<path d="M141.437 85.6287L106.583 135.239" stroke="#424D76" stroke-width="5" stroke-miterlimit="10" stroke-linecap="round"/>
<path d="M148.657 81.502C148.657 81.9248 147.575 82.322 145.674 82.6671C141.583 83.4106 133.698 83.9143 124.644 83.9143C115.591 83.9143 107.706 83.4106 103.617 82.666C101.715 82.3209 100.634 81.9237 100.634 81.5009C100.634 80.1694 111.385 79.0886 124.647 79.0886C137.909 79.0886 148.657 80.1694 148.657 81.502Z" fill="white" stroke="#FFB000" stroke-width="5" stroke-miterlimit="10"/>
<path d="M148.657 81.502V83.8321C148.657 85.1637 137.905 86.2444 124.644 86.2444C111.383 86.2444 100.631 85.1648 100.631 83.8321V81.502C100.631 81.9247 101.713 82.322 103.615 82.667C107.706 83.4105 115.59 83.9142 124.644 83.9142C133.699 83.9142 141.583 83.4105 145.674 82.6659C147.575 82.322 148.657 81.9247 148.657 81.502Z" fill="#FFD880" stroke="#FFB000" stroke-width="5" stroke-miterlimit="10"/>
<path d="M120.771 118.12C121.833 118.651 124.105 118.71 124.51 120.071C124.914 121.433 122.691 126.823 123.045 128.726C123.399 130.629 123.367 134.692 119.762 135.132C115.772 135.618 112.742 134.425 112.742 133.099C112.742 131.773 115.066 130.268 115.415 128.016C115.763 125.763 116.683 120.903 116.683 120.903L120.771 118.12Z" fill="#FFB000"/>
<path d="M115.683 124.054C115.683 124.054 117.367 122.778 119.948 124.054" stroke="white" stroke-width="4" stroke-linecap="round" stroke-linejoin="round"/>
<path d="M115.303 125.608C115.303 125.608 116.986 124.332 119.568 125.608" stroke="white" stroke-width="4" stroke-linecap="round" stroke-linejoin="round"/>
<path d="M114.922 127.161C114.922 127.161 116.606 125.885 119.187 127.161" stroke="white" stroke-width="4" stroke-linecap="round" stroke-linejoin="round"/>
<path d="M134.376 124.811C133.701 125.675 129.81 127.795 130.014 128.767C130.218 129.739 133.802 132.566 134.054 134.068C134.306 135.569 133.954 137.823 135.468 138.486C136.983 139.15 145.014 139.193 146.327 138.486C147.64 137.779 146.225 135.526 144.811 135.04C143.397 134.554 139.61 129.032 139.828 125.63L134.376 124.811Z" fill="#FFB000"/>
<path d="M141.491 128.798C141.491 128.798 139.808 127.522 137.227 128.798" stroke="white" stroke-width="4" stroke-linecap="round" stroke-linejoin="round"/>
<path d="M142.126 130.352C142.126 130.352 140.442 129.076 137.861 130.352" stroke="white" stroke-width="4" stroke-linecap="round" stroke-linejoin="round"/>
<path d="M142.887 131.905C142.887 131.905 141.203 130.629 138.622 131.905" stroke="white" stroke-width="4" stroke-linecap="round" stroke-linejoin="round"/>
<path d="M110.245 65.1153C110.245 65.1153 87 73.211 87 80.176C87 92.5959 106.823 115.462 110.88 115.119C114.936 114.776 117.667 111.914 117.511 110.413C117.355 108.912 110.027 89.5922 104.791 83.0399C104.791 83.0399 120.789 79.4892 122.896 79.4226C125.003 79.356 135.849 84.4736 136.005 84.6777C136.161 84.8819 130.398 98.721 133.742 116.757C134.21 119.282 142.949 119.828 143.808 118.805C144.666 117.782 154.336 82.1522 153.014 79.2861C151.693 76.42 140.583 68.575 133.869 65.4481C129.031 63.1956 110.245 65.1153 110.245 65.1153Z" fill="#424D76"/>
<path d="M141.126 122.428C140.981 122.819 140.295 124.657 139.828 125.63C139.382 126.559 133.819 126.244 134.374 124.81C134.847 123.59 134.854 121.925 134.846 121.457C135.756 121.773 138.339 122.567 141.126 122.428Z" fill="#C36F0B"/>
<path d="M141.233 122.422L142.786 119.185C142.786 119.185 137.742 119.733 134.376 117.699L134.503 121.329C134.503 121.329 138.002 122.723 141.233 122.422Z" fill="#6562CF"/>
<path d="M118.478 114.3C118.478 114.3 120.317 117.634 120.771 118.12C121.226 118.606 118.701 121.08 116.682 120.903L113.455 117.098C113.455 117.098 116.916 116.532 118.478 114.3Z" fill="#C36F0B"/>
<path d="M117.306 111.375L118.605 114.3C118.605 114.3 116.589 116.747 113.201 117.209L110.88 115.119C110.88 115.119 115.227 114.661 117.306 111.375Z" fill="#6562CF"/>
<path d="M132.201 23.4129C134.253 24.7322 139.83 27.0391 143.3 29.164C146.1 30.8783 148.598 38.3738 148.598 38.3738C148.598 38.3738 144.699 41.8513 138.151 43.215C138.151 43.215 134.409 53.3125 133.006 65.1054C133.006 65.1054 121 68.9891 110.164 65.1054C110.164 65.1054 105.798 43.488 105.253 43.357C104.707 43.2261 96.6166 41.0546 93.9629 37.5759C93.9629 37.5759 97.0923 29.6899 101.358 28.1442C105.993 26.4643 112.17 24.1618 114.319 23.151C115.415 22.6272 132.201 23.4129 132.201 23.4129Z" fill="#EAEAFF"/>
<path d="M103.513 27.3508L94.4132 38.0897C94.3143 37.9865 94.2191 37.8822 94.1316 37.7756L102.721 27.6427L103.513 27.3508Z" fill="white"/>
<path d="M107.963 25.6953L96.2107 39.5655C96.0927 39.4867 95.9773 39.4079 95.8644 39.328L107.154 26.0038L107.963 25.6953Z" fill="white"/>
<path d="M112.511 23.9221L98.2568 40.7405C98.1299 40.6762 98.0031 40.6118 97.8762 40.5441L111.676 24.2594C111.969 24.1418 112.243 24.0298 112.511 23.9221Z" fill="white"/>
<path d="M116.357 22.9768L100.458 41.7359C100.323 41.6815 100.189 41.6249 100.053 41.5684L115.795 22.9901C115.973 22.9846 116.159 22.979 116.357 22.9768Z" fill="white"/>
<path d="M119.396 22.9822L102.779 42.5969L102.349 42.4515L118.856 22.9756L119.396 22.9822Z" fill="white"/>
<path d="M122.391 23.0477L105.193 43.3348C105.105 43.3115 104.953 43.2704 104.749 43.2127L121.851 23.0344C122.03 23.0378 122.207 23.0422 122.391 23.0477Z" fill="white"/>
<path d="M125.353 23.1399L106.038 45.928C105.996 45.7549 105.955 45.5885 105.911 45.4287L124.818 23.1255L125.353 23.1399Z" fill="white"/>
<path d="M128.305 23.2486L106.699 48.742C106.659 48.57 106.621 48.4002 106.583 48.2338L127.776 23.2275L128.305 23.2486Z" fill="white"/>
<path d="M131.247 23.3706L107.333 51.5869C107.295 51.416 107.257 51.244 107.22 51.0743L130.719 23.3484L131.247 23.3706Z" fill="white"/>
<path d="M133.59 24.2006L107.949 54.452C107.914 54.28 107.877 54.108 107.84 53.936L133.21 23.9998C133.332 24.0652 133.459 24.1318 133.59 24.2006Z" fill="white"/>
<path d="M135.73 25.2669L108.565 57.3247C108.528 57.1538 108.492 56.9818 108.456 56.8076L135.342 25.0771C135.47 25.1415 135.599 25.2048 135.73 25.2669Z" fill="white"/>
<path d="M137.889 26.3123L109.16 60.2087C109.125 60.0389 109.09 59.8658 109.053 59.6905L137.502 26.1248L137.889 26.3123Z" fill="white"/>
<path d="M140.034 27.3742L109.756 63.1037C109.722 62.9384 109.687 62.7708 109.649 62.5833L139.651 27.1855L140.034 27.3742Z" fill="white"/>
<path d="M142.134 28.4872L110.89 65.3562L110.467 65.2087L141.765 28.2808L142.134 28.4872Z" fill="white"/>
<path d="M144.083 29.7886L113.361 66.0296C113.209 65.9963 113.058 65.9597 112.906 65.9187L143.768 29.5034C143.872 29.5944 143.975 29.6876 144.083 29.7886Z" fill="white"/>
<path d="M145.529 31.6673L116.002 66.5091C115.84 66.4881 115.676 66.4647 115.514 66.4381L145.292 31.3022C145.372 31.421 145.45 31.5441 145.529 31.6673Z" fill="white"/>
<path d="M138.083 43.3992C138.009 43.6056 137.879 43.9762 137.702 44.4921L118.821 66.7754C118.647 66.7654 118.474 66.7554 118.299 66.7421L138.083 43.3992Z" fill="white"/>
<path d="M146.729 33.8431L138.94 43.0329C138.717 43.0873 138.49 43.1439 138.262 43.1883L146.525 33.437C146.593 33.5746 146.662 33.71 146.729 33.8431Z" fill="white"/>
<path d="M136.276 49.126C136.186 49.4367 136.098 49.7585 136.008 50.088L121.827 66.821C121.643 66.821 121.459 66.8276 121.273 66.8287L136.276 49.126Z" fill="white"/>
<path d="M147.778 36.199L143.195 41.6106C142.924 41.7282 142.643 41.8447 142.351 41.959L147.601 35.7651C147.661 35.9138 147.721 36.0625 147.778 36.199Z" fill="white"/>
<path d="M134.937 54.2988C134.868 54.5895 134.8 54.8854 134.733 55.1865L125.038 66.6266C124.841 66.6455 124.644 66.6643 124.444 66.681L134.937 54.2988Z" fill="white"/>
<path d="M133.935 59.0779C133.885 59.3497 133.835 59.6227 133.786 59.8979L128.48 66.1561C128.273 66.1916 128.06 66.2282 127.846 66.2671L133.935 59.0779Z" fill="white"/>
<path d="M152.328 56.2904C152.041 60.9507 141.937 65.2782 136.608 67.2422C136.431 68.2076 135.707 68.6304 134.314 68.9444C131.41 69.5991 131.683 71.2746 131.534 71.5941C131.299 72.1034 128.435 72.6838 127.746 72.2599C127.336 72.0058 128.493 68.8146 129.151 67.6927C129.561 66.9948 132.306 65.6732 134.106 65.104C134.106 65.104 143.239 55.4204 144.49 54.8745C144.49 54.8745 141.112 46.7743 139.699 43.8594C139.497 43.441 139.335 43.1304 139.23 42.965C139.23 42.965 144.304 41.6335 147.736 39.0481C147.736 39.0481 148.047 39.7261 148.505 40.8412C149.884 44.1989 152.619 51.529 152.328 56.2904Z" fill="#C36F0B"/>
<path d="M148.504 40.8403C147.793 41.5005 145.634 42.9308 139.698 43.8584C139.495 43.4412 139.332 43.1294 139.227 42.9641C139.227 42.9641 144.301 41.6325 147.735 39.0471C147.735 39.0471 148.044 39.724 148.504 40.8403Z" fill="#B65A18"/>
<path d="M115.776 72.1478C115.006 72.4451 112.706 71.8881 112.496 71.5929C112.285 71.2978 111.988 69.4625 109.716 68.8322C108.09 68.3806 107.352 67.9312 107.38 66.5276C102.652 65.115 90.08 60.9251 89.5104 56.1682C89.1299 52.9947 92.924 43.917 94.5083 40.3008C94.9231 39.3565 95.1857 38.7839 95.1857 38.7839C98.8403 41.447 103.583 42.8362 103.583 42.8362L103.191 43.7761L98.6158 54.7368C100.699 55.4281 108.284 63.5771 109.467 64.8565C111.931 65.2737 114.571 66.7728 114.879 67.5806C115.203 68.4272 116.569 71.8404 115.776 72.1478Z" fill="#C36F0B"/>
<path d="M95.187 38.782C98.8403 41.4451 103.585 42.8343 103.585 42.8343L103.193 43.773C100.687 43.4268 96.5722 42.5802 94.5096 40.2977C94.9232 39.3545 95.187 38.782 95.187 38.782Z" fill="#B65A18"/>
<path d="M140.201 75.1907H103.472L97.2888 53.9328C97.1934 53.6427 97.1764 53.3372 97.2392 53.0405C97.302 52.7437 97.4429 52.4638 97.6508 52.2229C97.8586 51.982 98.1277 51.7867 98.4368 51.6524C98.7458 51.5182 99.0863 51.4487 99.4313 51.4495H144.246C144.591 51.4494 144.931 51.5194 145.239 51.6539C145.548 51.7884 145.816 51.9838 146.023 52.2246C146.231 52.4655 146.371 52.7451 146.434 53.0416C146.496 53.338 146.479 53.6431 146.384 53.9328L140.201 75.1907Z" fill="white" stroke="#6562CF" stroke-width="7" stroke-miterlimit="10"/>
<path d="M139.087 74.991H104.584L98.7755 55.0179C98.395 53.8495 98.1261 52.4658 99.5151 52.4658H144.156C145.545 52.4658 145.28 53.8517 144.896 55.0179L139.087 74.991Z" fill="#6562CF"/>
<path d="M123.936 65.4384H119.736C119.595 65.4382 119.459 65.397 119.347 65.3213C119.236 65.2455 119.157 65.1395 119.122 65.02L118.621 62.6532C118.609 62.6153 118.607 62.5753 118.615 62.5365C118.623 62.4977 118.642 62.4612 118.669 62.4297C118.696 62.3981 118.731 62.3726 118.772 62.355C118.812 62.3373 118.856 62.3282 118.902 62.3281H124.771C124.816 62.3282 124.861 62.3373 124.901 62.355C124.941 62.3726 124.976 62.3981 125.004 62.4297C125.031 62.4612 125.049 62.4977 125.058 62.5365C125.066 62.5753 125.064 62.6153 125.051 62.6532L124.548 65.0234C124.512 65.1419 124.433 65.2468 124.323 65.3219C124.212 65.397 124.076 65.4379 123.936 65.4384Z" stroke="white" stroke-width="6" stroke-linejoin="round"/>
<path d="M127.418 16.8662C127.418 16.8662 127.21 20.8608 132.201 23.4129C132.201 23.4129 127.254 26.5642 123.158 30.6121C123.158 30.6121 118.769 25.9173 114.322 23.1411C114.322 23.1411 118.687 20.1396 118.687 16.8673L127.418 16.8662Z" fill="#B65A18"/>
<path d="M131.665 14.6669C131.164 15.2416 130.26 16.3191 129.824 17.0925C129.047 20.7753 126.399 23.212 123.041 23.212C120.131 23.212 118.165 20.3581 117.259 17.705C117.238 17.6568 117.22 17.6075 117.206 17.5574C116.981 16.8262 115.765 15.3715 115.153 14.6724C115.105 14.6168 115.071 14.5527 115.053 14.4846C115.035 14.4164 115.034 14.3457 115.05 14.2772C115.066 14.2087 115.098 14.1439 115.145 14.0873C115.192 14.0307 115.252 13.9835 115.322 13.9489C116.068 13.575 116.455 13.8468 116.658 14.2019C116.55 11.5488 116.675 8.76482 118.441 8.74929C120.471 8.73265 127.221 8.61614 128.39 8.9579C129.396 9.25083 130.059 10.4836 130.062 14.4238C130.221 13.98 130.601 13.4995 131.497 13.9489C131.565 13.9836 131.625 14.0305 131.671 14.0867C131.717 14.1429 131.749 14.207 131.765 14.2748C131.781 14.3426 131.781 14.4126 131.763 14.4802C131.746 14.5477 131.713 14.6114 131.665 14.6669Z" fill="#C36F0B"/>
<path d="M132.878 9.83901C131.536 11.3148 129.947 14.7313 129.947 14.7313C129.947 14.7313 130.524 9.44288 128.185 9.50058C127.072 9.52721 124.835 10.8909 122.492 10.669C120.546 10.4848 118.115 8.17459 117.114 9.68477C116.56 10.8421 116.599 12.6585 116.683 14.5271C116.086 12.1359 114.85 10.5447 114.171 9.59489C112.746 8.94799 111.627 7.56319 111.949 6.1551C112.497 3.77276 114.596 3.90591 114.596 3.90591C118.137 4.22659 116.07 2.42125 120.362 0.715778C124.653 -0.989696 129.534 0.62479 129.954 2.67979C130.243 4.089 131.234 3.38329 132.786 4.01133C134.965 4.90124 134.455 8.10025 132.878 9.83901Z" fill="#FFB000"/>
<path d="M120.093 11.4379C126.101 12.1037 126.697 9.25089 129.283 9.59598" stroke="#FFB000" stroke-width="3" stroke-miterlimit="10"/>
</g>
<defs>
<clipPath id="clip0_140_525">
<rect width="66.6083" height="139.492" fill="white"/>
</clipPath>
<clipPath id="clip1_140_525">
<rect width="66.14" height="139" fill="white" transform="translate(87)"/>
</clipPath>
</defs>
</svg>
