<svg width="20" height="20" viewBox="0 0 20 20" fill="none" xmlns="http://www.w3.org/2000/svg">
<path d="M5 1.66667H6.74333L4.995 6.66667H1.985L4.255 2.12667C4.32428 1.98842 4.43065 1.87218 4.56222 1.79094C4.69379 1.7097 4.84537 1.66667 5 1.66667ZM2.045 8.33333L7.06833 16.145L4.95 8.33333H2.045ZM6.67667 8.33333L9.22667 17.7417C9.27186 17.9123 9.37221 18.0632 9.51208 18.1708C9.65195 18.2785 9.8235 18.3368 10 18.3368C10.1765 18.3368 10.348 18.2785 10.4879 18.1708C10.6278 18.0632 10.7281 17.9123 10.7733 17.7417L13.33 8.33333H6.67667ZM15.0567 8.33333L12.9333 16.1417L17.955 8.33333H15.0567ZM18.015 6.66667H15.01L13.26 1.66667H15C15.1549 1.66636 15.3068 1.70924 15.4387 1.7905C15.5706 1.87176 15.6773 1.98817 15.7467 2.12667L18.015 6.66667ZM13.245 6.66667H6.76167L8.50833 1.66667H11.4917L13.245 6.66667Z" fill="#2F9E44"/>
</svg>
