<svg width="20" height="20" viewBox="0 0 20 20" fill="none" xmlns="http://www.w3.org/2000/svg">
<path d="M19.9308 18.2383L19.9825 18.135V18.1C19.9825 18.0658 20 18.0308 20 18.0142V17.9792C20 17.945 20 17.8933 19.9833 17.8583L19.9308 17.755V17.7375L10.45 1.77917C10.4047 1.69998 10.3391 1.63425 10.2601 1.58871C10.181 1.54318 10.0912 1.51946 10 1.52C9.90943 1.52172 9.82076 1.5463 9.74223 1.59147C9.6637 1.63663 9.59787 1.70091 9.55083 1.77833L0.0691667 17.7208V17.7383L0.0175 17.8417C0 17.8758 0 17.9275 0 17.9617V17.9967C0 18.0308 0 18.0658 0.0166667 18.0825V18.1175C0.0341667 18.1517 0.0341667 18.1867 0.0691667 18.2208L0.0858333 18.2383C0.103333 18.2725 0.120833 18.3075 0.155833 18.325L0.2075 18.3767C0.224167 18.3933 0.241667 18.4108 0.259167 18.4108C0.275833 18.4283 0.310833 18.4283 0.328333 18.4458C0.345 18.4458 0.3625 18.4625 0.38 18.4625C0.42462 18.4769 0.471535 18.4828 0.518333 18.48H19.465C19.5167 18.48 19.5508 18.48 19.6025 18.4633C19.62 18.4633 19.6375 18.4458 19.655 18.4458C19.6892 18.4283 19.7067 18.4283 19.7408 18.4108C19.7575 18.3942 19.7758 18.3942 19.7925 18.3767L19.8442 18.325C19.8724 18.3006 19.8958 18.2712 19.9133 18.2383H19.9308ZM10 9.43L13.0225 14.3008H6.9775L10 9.43ZM9.48167 8.3075L5.68167 14.4383L1.96917 16.5633L9.48167 3.93833V8.3075ZM6.18333 15.3542H13.8L17.5133 17.4792H2.47L6.18333 15.3542ZM14.3175 14.4383L10.5175 8.3075V3.9375L18.0308 16.5625L14.3175 14.4383Z" fill="#FF3200"/>
</svg>
